<svg width="313" height="71" viewBox="0 0 313 71" fill="none" xmlns="http://www.w3.org/2000/svg">
<path d="M51.24 32.12V35.08H43.64V60H40V35.08H32.36V32.12H51.24ZM59.3606 41.64C60.0006 40.3867 60.9073 39.4133 62.0806 38.72C63.2806 38.0267 64.734 37.68 66.4406 37.68V41.44H65.4806C61.4006 41.44 59.3606 43.6533 59.3606 48.08V60H55.7206V38.08H59.3606V41.64ZM69.2825 48.96C69.2825 46.72 69.7358 44.76 70.6425 43.08C71.5492 41.3733 72.7892 40.0533 74.3625 39.12C75.9625 38.1867 77.7358 37.72 79.6825 37.72C81.6025 37.72 83.2692 38.1333 84.6825 38.96C86.0958 39.7867 87.1492 40.8267 87.8425 42.08V38.08H91.5225V60H87.8425V55.92C87.1225 57.2 86.0425 58.2667 84.6025 59.12C83.1892 59.9467 81.5358 60.36 79.6425 60.36C77.6958 60.36 75.9358 59.88 74.3625 58.92C72.7892 57.96 71.5492 56.6133 70.6425 54.88C69.7358 53.1467 69.2825 51.1733 69.2825 48.96ZM87.8425 49C87.8425 47.3467 87.5092 45.9067 86.8425 44.68C86.1758 43.4533 85.2692 42.52 84.1225 41.88C83.0025 41.2133 81.7625 40.88 80.4025 40.88C79.0425 40.88 77.8025 41.2 76.6825 41.84C75.5625 42.48 74.6692 43.4133 74.0025 44.64C73.3358 45.8667 73.0025 47.3067 73.0025 48.96C73.0025 50.64 73.3358 52.1067 74.0025 53.36C74.6692 54.5867 75.5625 55.5333 76.6825 56.2C77.8025 56.84 79.0425 57.16 80.4025 57.16C81.7625 57.16 83.0025 56.84 84.1225 56.2C85.2692 55.5333 86.1758 54.5867 86.8425 53.36C87.5092 52.1067 87.8425 50.6533 87.8425 49ZM105.834 56.64L112.634 38.08H116.514L107.914 60H103.674L95.0738 38.08H98.9938L105.834 56.64ZM140.096 48.2C140.096 48.8933 140.056 49.6267 139.976 50.4H122.456C122.589 52.56 123.322 54.2533 124.656 55.48C126.016 56.68 127.656 57.28 129.576 57.28C131.149 57.28 132.456 56.92 133.496 56.2C134.562 55.4533 135.309 54.4667 135.736 53.24H139.656C139.069 55.3467 137.896 57.0667 136.136 58.4C134.376 59.7067 132.189 60.36 129.576 60.36C127.496 60.36 125.629 59.8933 123.976 58.96C122.349 58.0267 121.069 56.7067 120.136 55C119.202 53.2667 118.736 51.2667 118.736 49C118.736 46.7333 119.189 44.7467 120.096 43.04C121.002 41.3333 122.269 40.0267 123.896 39.12C125.549 38.1867 127.442 37.72 129.576 37.72C131.656 37.72 133.496 38.1733 135.096 39.08C136.696 39.9867 137.922 41.24 138.776 42.84C139.656 44.4133 140.096 46.2 140.096 48.2ZM136.336 47.44C136.336 46.0533 136.029 44.8667 135.416 43.88C134.802 42.8667 133.962 42.1067 132.896 41.6C131.856 41.0667 130.696 40.8 129.416 40.8C127.576 40.8 126.002 41.3867 124.696 42.56C123.416 43.7333 122.682 45.36 122.496 47.44H136.336ZM148.54 30.4V60H144.9V30.4H148.54ZM260.8 32.12L252.72 60H248.64L242.16 37.56L235.44 60L231.4 60.04L223.6 32.12H227.48L233.56 55.76L240.28 32.12H244.36L250.76 55.68L256.88 32.12H260.8ZM263.423 48.96C263.423 46.72 263.876 44.76 264.783 43.08C265.69 41.3733 266.93 40.0533 268.503 39.12C270.103 38.1867 271.876 37.72 273.823 37.72C275.743 37.72 277.41 38.1333 278.823 38.96C280.236 39.7867 281.29 40.8267 281.983 42.08V38.08H285.663V60H281.983V55.92C281.263 57.2 280.183 58.2667 278.743 59.12C277.33 59.9467 275.676 60.36 273.783 60.36C271.836 60.36 270.076 59.88 268.503 58.92C266.93 57.96 265.69 56.6133 264.783 54.88C263.876 53.1467 263.423 51.1733 263.423 48.96ZM281.983 49C281.983 47.3467 281.65 45.9067 280.983 44.68C280.316 43.4533 279.41 42.52 278.263 41.88C277.143 41.2133 275.903 40.88 274.543 40.88C273.183 40.88 271.943 41.2 270.823 41.84C269.703 42.48 268.81 43.4133 268.143 44.64C267.476 45.8667 267.143 47.3067 267.143 48.96C267.143 50.64 267.476 52.1067 268.143 53.36C268.81 54.5867 269.703 55.5333 270.823 56.2C271.943 56.84 273.183 57.16 274.543 57.16C275.903 57.16 277.143 56.84 278.263 56.2C279.41 55.5333 280.316 54.5867 280.983 53.36C281.65 52.1067 281.983 50.6533 281.983 49ZM310.694 38.08L297.494 70.32H293.734L298.054 59.76L289.214 38.08H293.254L300.134 55.84L306.934 38.08H310.694Z" fill="white"/>
<path d="M178.464 31.92V60H171.624V48.44H160.984V60H154.144V31.92H160.984V42.92H171.624V31.92H178.464ZM204.442 48.48C204.442 49.12 204.402 49.7867 204.322 50.48H188.842C188.949 51.8667 189.389 52.9333 190.162 53.68C190.962 54.4 191.935 54.76 193.082 54.76C194.789 54.76 195.975 54.04 196.642 52.6H203.922C203.549 54.0667 202.869 55.3867 201.882 56.56C200.922 57.7333 199.709 58.6533 198.242 59.32C196.775 59.9867 195.135 60.32 193.322 60.32C191.135 60.32 189.189 59.8533 187.482 58.92C185.775 57.9867 184.442 56.6533 183.482 54.92C182.522 53.1867 182.042 51.16 182.042 48.84C182.042 46.52 182.509 44.4933 183.442 42.76C184.402 41.0267 185.735 39.6933 187.442 38.76C189.149 37.8267 191.109 37.36 193.322 37.36C195.482 37.36 197.402 37.8133 199.082 38.72C200.762 39.6267 202.069 40.92 203.002 42.6C203.962 44.28 204.442 46.24 204.442 48.48ZM197.442 46.68C197.442 45.5067 197.042 44.5733 196.242 43.88C195.442 43.1867 194.442 42.84 193.242 42.84C192.095 42.84 191.122 43.1733 190.322 43.84C189.549 44.5067 189.069 45.4533 188.882 46.68H197.442ZM214.89 41.4C215.69 40.1733 216.69 39.2133 217.89 38.52C219.09 37.8 220.424 37.44 221.89 37.44V44.68H220.01C218.304 44.68 217.024 45.0533 216.17 45.8C215.317 46.52 214.89 47.8 214.89 49.64V60H208.05V37.68H214.89V41.4Z" fill="#FFA621"/>
<path d="M35.4352 11.9915L35.3758 11.9618L33.7189 11.1334L31.1721 10.1784C30.7309 10.7318 30.4533 11.2163 30.2537 11.757C30.0421 12.33 29.9158 12.9722 29.7806 13.8403L29.7797 13.8465L29.7795 13.8465C28.7515 19.0887 28.0994 22.051 26.8012 27.2584L26.8021 27.2596L26.8148 27.2752C27.5877 28.2305 28.2125 29.0028 28.5548 29.7115C28.9061 30.4387 28.9676 31.1147 28.6011 31.8617C27.9224 33.2446 27.3188 34.75 26.6307 36.7796C27.8907 39.9243 28.8496 42.3389 29.4286 44.1071C29.7197 44.9961 29.9171 45.7284 30.0077 46.3117C30.0973 46.8886 30.0874 47.3481 29.9334 47.6717L29.9215 47.6967L29.902 47.7162C29.7859 47.8323 29.4754 48.2146 29.0258 48.7917C28.5798 49.3641 28.0049 50.1179 27.3648 50.9674C26.0948 52.6531 24.5698 54.7136 23.2909 56.4768L23.2907 56.4897C23.2901 56.5309 23.2887 56.5897 23.2861 56.6609C23.2808 56.803 23.2702 56.9955 23.2489 57.1954C23.2277 57.3941 23.1953 57.6059 23.145 57.7844C23.1198 57.8735 23.0888 57.9593 23.0496 58.0328C23.0114 58.1043 22.9585 58.1774 22.8831 58.2245C22.8016 58.2752 22.7042 58.2749 22.6289 58.2649C22.5474 58.2541 22.4574 58.2272 22.3658 58.1904C22.1817 58.1166 21.9696 57.9943 21.7687 57.8415C21.5678 57.6886 21.372 57.5003 21.225 57.2911C21.0788 57.083 20.9734 56.843 20.9734 56.5904C20.9734 56.5174 21.0113 56.4531 21.0354 56.4164C21.0646 56.3718 21.1033 56.3248 21.1449 56.2788C21.2285 56.1863 21.3375 56.0834 21.4429 55.989C21.5491 55.894 21.6549 55.805 21.7339 55.7398C21.7735 55.7072 21.8065 55.6804 21.8297 55.6618L21.8484 55.6468C22.0527 55.3605 22.2474 55.0889 22.4356 54.8264C23.6209 53.1734 24.5486 51.8797 25.9899 49.5165L25.9902 49.5161C26.5913 48.5374 26.9829 47.0864 27.1335 46.0809C27.1455 46.0006 27.1208 45.8656 27.0331 45.6655C26.9479 45.4711 26.8132 45.237 26.6351 44.9685C26.2793 44.4319 25.7627 43.7754 25.1599 43.0513C24.6156 42.3974 24.004 41.692 23.3815 40.9741C23.3154 40.8978 23.2492 40.8214 23.1829 40.7449C22.515 39.9743 21.8419 39.1944 21.2356 38.4562C18.6386 38.9074 16.9885 39.0016 13.7561 38.7835C13.1446 40.57 12.4883 42.0479 10.9602 45.1734C10.5783 46.0546 10.3928 46.7382 10.3532 47.4234C10.3134 48.1108 10.4196 48.8109 10.6374 49.7281C11.5082 53.1352 12.2446 55.0089 13.753 58.2747C13.7741 58.2822 13.7945 58.2913 13.8133 58.3006C13.8718 58.3294 13.9406 58.3729 14.0127 58.4237C14.1583 58.5262 14.3356 58.6712 14.5043 58.8271C14.6724 58.9825 14.8373 59.1537 14.9553 59.309C15.014 59.3862 15.0653 59.465 15.0987 59.54C15.1292 59.6084 15.1597 59.7061 15.128 59.8028C15.0928 59.9102 14.9925 59.9685 14.9212 60.0007C14.8395 60.0377 14.7366 60.0661 14.6243 60.0881C14.3982 60.1325 14.1052 60.1565 13.7972 60.1596C13.4884 60.1627 13.1587 60.1449 12.8583 60.1034C12.561 60.0623 12.28 59.9964 12.0759 59.8971C11.9385 59.8303 11.8828 59.7021 11.8644 59.5884C11.8463 59.4767 11.8592 59.3558 11.8789 59.2531C11.8991 59.1482 11.9289 59.0499 11.9531 58.9788C11.9624 58.9517 11.971 58.9282 11.9781 58.9093C11.8324 58.3258 11.6797 58.0075 10.6797 55.9222C10.4479 55.4391 10.1707 54.8611 9.83758 54.1629L9.83415 54.1557L9.83145 54.1482C9.06571 52.024 8.26769 50.5862 7.66505 49.526C7.63556 49.4741 7.60648 49.423 7.57785 49.3728C7.31509 48.9113 7.0904 48.5167 6.93043 48.1688C6.75294 47.7828 6.64552 47.435 6.65974 47.0966C6.67005 46.8513 6.70788 46.5157 6.75195 46.1247C6.76315 46.0254 6.77476 45.9225 6.78641 45.8165C6.84443 45.2893 6.90511 44.6777 6.92971 44.0316C6.97905 42.7351 6.8819 41.3199 6.34213 40.1818L6.33625 40.1693L6.33256 40.1561C5.37615 36.727 4.99833 34.9157 5.45957 32.3C5.12796 32.3406 4.87997 32.4499 4.65401 32.6467C4.37691 32.8881 4.12329 33.269 3.80394 33.855C3.39761 34.9469 3.26788 35.5954 3.15151 36.7997L3.15119 36.803L3.15116 36.803C2.81909 39.626 2.70495 41.1442 2.81911 43.7635C2.91286 44.7537 2.9495 45.4988 2.85751 46.1552C2.76452 46.8188 2.54129 47.3851 2.12782 48.0229L2.12733 48.0237C2.0855 48.0874 2.04411 48.1488 2.00335 48.2092C1.72232 48.6257 1.47162 48.9973 1.31863 49.7965L1.08161 51.0348L1.00099 49.7766C0.94233 48.8612 0.952968 48.3848 1.0209 48.0703C1.07408 47.8241 1.16627 47.672 1.26406 47.5107C1.29375 47.4617 1.32396 47.4119 1.35375 47.3583C1.45756 47.1716 1.53954 46.9935 1.54054 46.7507C1.54155 46.5051 1.45927 46.1731 1.18928 45.6871C0.930717 45.2742 0.783521 44.9065 0.859587 44.4944C0.933392 44.0947 1.21204 43.6876 1.7016 43.1741C1.70581 43.1578 1.71089 43.132 1.71612 43.0945C1.72812 43.0082 1.73796 42.8824 1.74537 42.7228C1.76014 42.4047 1.76467 41.9676 1.76127 41.4769C1.75447 40.4961 1.7161 39.3109 1.66662 38.4579C1.60851 37.456 1.77799 36.192 1.95906 35.1871C2.04991 34.6828 2.14433 34.2403 2.21604 33.9239C2.2519 33.7657 2.28211 33.6388 2.30339 33.5514C2.31402 33.5077 2.32243 33.4738 2.3282 33.4508L2.33482 33.4246L2.33655 33.4178L2.337 33.416L2.33713 33.4156L2.33716 33.4154L2.49253 33.4553M35.4352 11.9915L33.9579 3.16426C34.1239 3.22565 34.5464 3.38192 34.7576 4.49081L34.7607 4.48895C34.7956 4.46755 34.8446 4.43775 34.9038 4.40255M35.4352 11.9915L35.4982 11.9705L36.4969 11.6377L36.5599 11.6166L36.5896 11.5572L36.9225 10.8915L36.9609 10.8147L36.9183 10.7401L35.602 8.43657L35.4437 7.329L35.6048 6.52375L35.6132 6.48198L35.5997 6.44157L35.3406 5.66443C35.6962 5.43409 35.995 5.09388 36.1932 4.7858C36.3031 4.61508 36.3867 4.44703 36.4318 4.30481C36.4541 4.23429 36.4694 4.16275 36.4701 4.09656C36.4708 4.03434 36.4586 3.94773 36.3931 3.88228C36.3513 3.84044 36.3008 3.82381 36.2611 3.8174C36.2215 3.81099 36.1819 3.81289 36.147 3.81745C36.0773 3.82656 35.9988 3.85013 35.9207 3.87899C35.7627 3.93738 35.5737 4.02981 35.3958 4.12434C35.2166 4.21954 35.0432 4.3197 34.9151 4.39584C34.9113 4.3981 34.9075 4.40034 34.9038 4.40255M35.4352 11.9915L34.935 4.57081C34.9251 4.51255 34.9147 4.4565 34.9038 4.40255M2.49253 33.4553C2.33739 33.4145 2.33741 33.4145 2.33742 33.4144L2.33747 33.4142L2.33763 33.4136L2.33817 33.4116L2.34017 33.4042L2.34789 33.3763C2.35468 33.3521 2.36479 33.317 2.37826 33.2722C2.40519 33.1828 2.44558 33.055 2.49978 32.9004C2.60805 32.5914 2.77202 32.1734 2.9947 31.7386C3.43381 30.8813 4.12676 29.908 5.11335 29.6389C5.24341 29.6035 5.38892 29.5641 5.54848 29.521C7.63978 28.9559 12.1447 27.7386 15.9064 25.9867L15.9147 25.9828L15.9148 25.9831C16.3695 25.8022 16.6499 25.6815 16.9397 25.5055C17.2309 25.3286 17.5362 25.0931 18.0351 24.6773L18.0376 24.6752L18.0376 24.6752C18.4216 24.368 18.7033 23.8602 18.9981 23.254C19.0467 23.154 19.0956 23.0515 19.1453 22.9474C19.3911 22.4322 19.6562 21.8764 20.0037 21.3798L20.0071 21.3748L20.0072 21.3749C20.6612 20.5116 21.015 19.9231 21.3981 19.2856C21.6211 18.9147 21.8541 18.5271 22.162 18.0592C23.1059 16.4025 23.5528 15.4193 24.1423 13.437L24.1455 13.4265L24.1458 13.4266C25.2735 10.4092 26.2714 8.62469 28.3774 5.88312C27.8399 5.60445 27.4862 5.31107 27.3086 4.91678C27.1133 4.4832 27.1481 3.96454 27.3021 3.29394L27.334 3.15487L27.4758 3.17037C27.6903 3.19381 27.8784 3.23681 28.0994 3.34384C28.3152 3.4483 28.5575 3.61141 28.8853 3.86663C29.1706 4.0663 29.36 4.1955 29.8031 4.48019C30.263 4.27556 30.5911 4.04176 31.3341 3.2222L31.359 3.19476L31.3934 3.18101L32.2256 2.84813L32.2596 2.83453L32.2961 2.83703L32.2852 2.99707L32.2961 2.83703L32.2962 2.83704L32.2964 2.83705L32.2972 2.83711L32.3005 2.83733L32.3132 2.83821L32.3612 2.84159C32.4026 2.84452 32.462 2.84879 32.5337 2.85411C32.6772 2.86474 32.8704 2.87958 33.0692 2.89644C33.2677 2.91327 33.4727 2.93219 33.6395 2.95099C33.7228 2.96038 33.7979 2.96988 33.8584 2.97926C33.9135 2.98779 33.9716 2.9983 34.0107 3.01274M2.49253 33.4553L2.33718 33.4154L2.33739 33.4145L2.49253 33.4553ZM34.0107 3.01274L33.955 3.16318L34.0106 3.01273L34.0107 3.01274ZM34.0107 3.01274L34.0135 3.01381C34.1128 3.05051 34.303 3.12227 34.4903 3.36496C34.65 3.57179 34.8004 3.89306 34.9038 4.40255M5.31174 38.911L5.0064 37.6181L4.99521 38.9465C4.98414 40.2611 4.92823 41.2379 4.71982 42.1565C4.51197 43.0726 4.15054 43.9385 3.51896 45.0256L3.49752 45.0625L3.49725 45.1052C3.49342 45.7178 3.42529 46.207 3.35916 46.6819C3.32883 46.8996 3.29893 47.1144 3.27583 47.3367C3.20282 48.0394 3.20616 48.7741 3.50347 49.8106C3.78313 50.7856 3.66508 51.7943 3.46911 52.7195C3.40631 53.016 3.33694 53.298 3.27056 53.568C3.23279 53.7216 3.19599 53.8712 3.16191 54.0174C3.06969 54.4129 2.99793 54.7808 2.99793 55.0924C2.99793 55.6914 3.20576 56.245 3.38733 56.7286L3.40344 56.7716C3.49763 57.0227 3.58235 57.2527 3.63426 57.4702C3.68596 57.6869 3.70217 57.8801 3.66681 58.0569C3.62536 58.2641 3.5932 58.4299 3.57425 58.5639C3.55545 58.6969 3.54773 58.8105 3.56107 58.9105C3.59112 59.1358 3.72341 59.2536 3.89428 59.3818C3.96598 59.4355 4.06333 59.4644 4.15544 59.482C4.25251 59.5006 4.36571 59.5105 4.4853 59.5139C4.72482 59.5207 5.00465 59.5017 5.26199 59.4642C5.51618 59.4271 5.76296 59.3699 5.92947 59.2941C6.00712 59.2587 6.09795 59.2062 6.148 59.1245C6.17653 59.0779 6.19343 59.0189 6.18182 58.9537C6.17075 58.8917 6.13712 58.843 6.10124 58.8071C6.01282 58.7187 5.91768 58.6432 5.83117 58.5746L5.82407 58.5689C5.73329 58.4969 5.6522 58.432 5.58025 58.3584C5.44462 58.2196 5.3388 58.0475 5.31603 57.7495V56.2575V56.2439L5.31372 56.2304C5.03072 54.5806 5.28903 53.5505 5.71409 51.8555C5.74541 51.7306 5.77763 51.6021 5.81061 51.4695L5.81535 51.4504V51.4308C5.81535 50.8791 5.99683 50.3204 6.17581 49.8205C6.1936 49.7708 6.21143 49.7215 6.22906 49.6727C6.29849 49.4808 6.36473 49.2977 6.41222 49.1353C6.47031 48.9366 6.51094 48.7368 6.47807 48.5702C6.43048 48.3292 6.33575 48.1129 6.24569 47.9073C6.23462 47.882 6.22361 47.8568 6.21278 47.8319C6.11325 47.6023 6.02169 47.3724 5.98188 47.0929C5.98254 47.0111 5.98321 46.9303 5.98387 46.8505C6.01092 43.5801 6.02457 41.9293 5.31174 38.911ZM22.2569 40.5111L21.9937 40.1871L21.9722 40.604C21.6826 46.2373 22.0682 48.3066 22.9741 52.6288L23.05 52.9913L23.2625 52.6879L24.4276 51.0235L24.4671 50.967L24.4533 50.8995C24.3245 50.2663 24.28 49.8399 24.2487 49.4347C24.2423 49.352 24.2365 49.2698 24.2306 49.1866C24.2083 48.8733 24.185 48.5461 24.1286 48.1273C24.1374 48.1064 24.1461 48.0836 24.1543 48.0616C24.1739 48.0086 24.1976 47.9394 24.2232 47.8583C24.2744 47.6962 24.3344 47.4834 24.3859 47.2536C24.4374 47.0242 24.4811 46.7747 24.4987 46.5398C24.516 46.3082 24.5092 46.0759 24.4488 45.889C24.3565 45.6034 24.341 45.2206 24.3595 44.7645C24.3686 44.5386 24.3858 44.2995 24.4043 44.0504L24.4092 43.9845C24.4261 43.7566 24.4437 43.5211 24.4563 43.2838L24.4596 43.2221L24.4206 43.1741L22.2569 40.5111Z" fill="#FFA621" stroke="#FFA621" stroke-width="0.320827" stroke-miterlimit="16"/>
<path d="M32.4795 44.834C32.5442 45.322 32.6737 45.6271 32.6737 45.6271C32.6737 45.6271 32.5442 45.322 32.4795 44.834Z" fill="black"/>
<path d="M28.9571 8.65446V7.82227L27.792 8.32158V9.48666L28.9571 8.65446Z" fill="#654E3C" stroke="#654E3C" stroke-width="0.320827"/>
<path d="M27.9516 12.3149V12.3145C27.9516 12.2305 27.9516 11.8935 27.9304 11.5761C27.9199 11.4182 27.9037 11.2583 27.878 11.1352C27.8654 11.075 27.8484 11.0131 27.8234 10.9626C27.811 10.9374 27.7923 10.9062 27.7638 10.8795C27.7335 10.8511 27.6864 10.823 27.6247 10.823C27.5514 10.823 27.4743 10.847 27.4057 10.8754C27.3338 10.9052 27.2557 10.9465 27.1758 10.9941C27.0159 11.0896 26.8381 11.2175 26.6714 11.3512C26.5045 11.485 26.345 11.6277 26.2224 11.7539C26.1612 11.8168 26.1071 11.8779 26.0653 11.9333C26.0276 11.9833 25.9856 12.047 25.9705 12.1122C25.9592 12.161 25.9589 12.2187 25.9615 12.2705C25.9642 12.326 25.9711 12.3897 25.9808 12.4571C26.0002 12.5921 26.0319 12.7502 26.0692 12.9028C26.1063 13.0551 26.15 13.2059 26.194 13.3255C26.2159 13.3849 26.2393 13.4405 26.2638 13.486C26.276 13.5088 26.2902 13.5321 26.3065 13.5533C26.3214 13.5725 26.346 13.6003 26.3817 13.6202C26.4316 13.6479 26.4793 13.6418 26.4952 13.6393C26.5164 13.636 26.5344 13.6296 26.5466 13.6248C26.5715 13.6148 26.5973 13.6008 26.6207 13.5869C26.669 13.5582 26.7292 13.5168 26.7948 13.4686C26.9273 13.3714 27.0945 13.2375 27.2582 13.0978C27.4217 12.9583 27.5847 12.8107 27.708 12.6859C27.7693 12.6238 27.8236 12.5646 27.8637 12.513C27.8836 12.4874 27.9027 12.4603 27.9176 12.4332C27.9297 12.4113 27.9516 12.3676 27.9516 12.3149Z" fill="#654E3C" stroke="#654E3C" stroke-width="0.320827"/>
<path d="M27.4597 16.6431L27.3645 16.7722L27.5033 16.8745L27.5953 16.7287L27.4597 16.6431ZM27.4597 16.6431L27.5953 16.7287L27.5954 16.7286L27.5955 16.7284L27.5958 16.7279L27.5969 16.7262L27.6008 16.7199L27.6152 16.6964C27.6275 16.6761 27.6451 16.6468 27.6662 16.6103C27.7085 16.5373 27.7657 16.4347 27.8253 16.3162C27.9422 16.0837 28.0771 15.7732 28.1176 15.5017C28.159 15.224 28.1502 14.8756 28.1145 14.5974C28.0967 14.4584 28.0712 14.3292 28.0387 14.2311C28.0228 14.1831 28.0022 14.1334 27.9744 14.0924C27.9521 14.0594 27.8937 13.986 27.7923 13.9861C27.7458 13.9861 27.7041 14.0034 27.6823 14.0131C27.6546 14.0254 27.6249 14.0417 27.5949 14.0597C27.5344 14.0961 27.4616 14.1463 27.3825 14.2051C27.2239 14.3232 27.031 14.4828 26.8461 14.6525C26.6619 14.8217 26.4813 15.0049 26.3499 15.1701C26.2844 15.2524 26.2273 15.335 26.1884 15.4127C26.1528 15.4838 26.117 15.5804 26.1377 15.6778C26.1463 15.7185 26.1666 15.752 26.1802 15.7724C26.1959 15.7958 26.215 15.8192 26.2347 15.8415C26.2744 15.8863 26.3261 15.9368 26.3833 15.9891C26.4981 16.0941 26.646 16.2164 26.7903 16.3316C26.9352 16.4471 27.0786 16.5572 27.1857 16.6383C27.2393 16.6789 27.2839 16.7123 27.3152 16.7356L27.3515 16.7626L27.3611 16.7697L27.3636 16.7716L27.3643 16.772L27.3644 16.7722L27.3645 16.7722L27.4597 16.6431Z" fill="#654E3C" stroke="#654E3C" stroke-width="0.320827"/>
<path d="M25.4409 15.7447L25.3491 15.5445L25.1867 15.6932L25.2951 15.8115L25.1867 15.6933L25.1866 15.6933L25.1865 15.6935L25.1858 15.6941L25.1833 15.6963L25.1739 15.705L25.1386 15.7378C25.1083 15.7661 25.0649 15.8069 25.0127 15.8568C24.9084 15.9565 24.7682 16.0933 24.6254 16.2409C24.483 16.388 24.3358 16.5481 24.2186 16.6941C24.16 16.7671 24.1071 16.8388 24.0656 16.9052C24.0258 16.9688 23.9889 17.0393 23.9735 17.1078C23.9657 17.1423 23.9671 17.1776 23.9688 17.2008C23.9708 17.2278 23.9749 17.2579 23.9801 17.289C23.9906 17.3514 24.0074 17.4278 24.0277 17.5112C24.0684 17.6787 24.1259 17.8843 24.1839 18.0827C24.2421 18.2815 24.3014 18.4749 24.3461 18.6185C24.3684 18.6903 24.3872 18.7497 24.4003 18.7912L24.4156 18.8394L24.4197 18.8521L24.4208 18.8554L24.421 18.8562L24.4211 18.8564L24.4211 18.8565L24.5738 18.8074L24.4211 18.8565L24.5125 19.1409L24.6991 18.9076L26.0306 17.2432L26.0924 17.1661L26.0512 17.0762L25.4409 15.7447Z" fill="#654E3C" stroke="#654E3C" stroke-width="0.320827"/>
<path d="M26.7773 19.4163L26.7097 19.236L26.5446 19.3351L25.7124 19.8344L25.6345 19.8811V19.972V21.6364V21.7028L25.6815 21.7498L26.1808 22.2491L26.3234 22.3917L26.4303 22.2207L27.2625 20.8892L27.3045 20.822L27.2766 20.7478L26.7773 19.4163Z" fill="#654E3C" stroke="#654E3C" stroke-width="0.320827"/>
<path d="M22.7146 20.1677L22.7145 20.1677L22.7145 20.1677L22.6223 20.1129L22.5364 20.1773C22.2484 20.3933 22.0489 20.5732 21.8893 20.7647C21.7294 20.9566 21.6146 21.1541 21.4909 21.3982L21.4909 21.3982L21.4901 21.3999L21.634 21.4707C21.4901 21.3999 21.4901 21.3999 21.49 21.4L21.49 21.4001L21.4898 21.4004L21.4895 21.4011L21.4886 21.4029L21.486 21.4084C21.4839 21.4129 21.4812 21.4191 21.4779 21.4268C21.4713 21.4421 21.4626 21.4637 21.4531 21.4905C21.4341 21.5439 21.4116 21.6193 21.3965 21.7093C21.3666 21.8878 21.3645 22.1347 21.492 22.3775C21.612 22.6061 21.8333 22.8693 22.0403 23.0724C22.1448 23.1749 22.2502 23.2665 22.3429 23.3338C22.389 23.3672 22.4351 23.3969 22.4785 23.4188C22.517 23.4383 22.5728 23.462 22.6326 23.462C22.6766 23.462 22.7153 23.4472 22.7375 23.4378C22.7639 23.4265 22.7914 23.4118 22.8182 23.3959C22.8721 23.3641 22.9357 23.3204 23.0036 23.2706C23.1402 23.1705 23.3065 23.0369 23.4714 22.9004C23.6421 22.7592 23.8089 22.6171 23.9448 22.5014C24.0773 22.3885 24.1802 22.3008 24.2286 22.2635C24.3274 22.1872 24.3649 22.0719 24.377 21.9667C24.3893 21.86 24.3787 21.7379 24.3571 21.6124C24.3138 21.3606 24.2184 21.0556 24.1161 20.7535L24.0857 20.6639L23.9926 20.6471L23.9926 20.6471L23.9926 20.6471L23.9926 20.6471L23.9924 20.6471L23.9917 20.6469L23.9884 20.6464L23.9755 20.6439L23.9266 20.6345C23.8848 20.6263 23.8265 20.6144 23.7606 20.5996C23.6269 20.5698 23.4689 20.53 23.3534 20.4878C23.228 20.4421 23.0699 20.3634 22.9388 20.2933C22.8742 20.2587 22.8178 20.2272 22.7777 20.2043C22.7577 20.1929 22.7417 20.1836 22.7309 20.1773L22.7185 20.1701L22.7154 20.1683L22.7147 20.1678L22.7146 20.1677L22.7146 20.1677Z" fill="#654E3C" stroke="#654E3C" stroke-width="0.320827"/>
<path d="M24.7718 23.4754C24.6349 23.4961 24.4826 23.5739 24.3421 23.6626C24.1969 23.7543 24.0457 23.8701 23.9073 23.9856C23.7686 24.1015 23.6402 24.2194 23.5405 24.3168C23.4451 24.4098 23.3653 24.4944 23.333 24.5405C23.3143 24.5671 23.3017 24.5994 23.294 24.6202C23.2846 24.6456 23.275 24.6758 23.2654 24.709C23.2462 24.7755 23.2251 24.8606 23.2043 24.9561C23.1627 25.1469 23.1208 25.3859 23.0965 25.6122C23.0729 25.8325 23.0635 26.0613 23.0984 26.2205C23.1144 26.2935 23.1492 26.3991 23.2428 26.4567C23.3563 26.5266 23.4744 26.4832 23.5534 26.4304C23.6245 26.3829 23.7467 26.3115 23.8953 26.2246C24.024 26.1494 24.1724 26.0626 24.3246 25.9698C24.484 25.8726 24.6438 25.7708 24.7772 25.6749C24.9053 25.5829 25.0268 25.484 25.0928 25.3916C25.1139 25.3621 25.1251 25.327 25.1304 25.3101C25.1377 25.2867 25.1447 25.2593 25.1512 25.2298C25.1644 25.1704 25.1778 25.0943 25.1899 25.0085C25.2143 24.8368 25.2349 24.6187 25.2383 24.4049C25.2417 24.1946 25.229 23.9741 25.1792 23.8052C25.1545 23.7215 25.1161 23.634 25.0517 23.5687C24.9802 23.4963 24.8829 23.4586 24.7718 23.4754Z" fill="#654E3C" stroke="#654E3C" stroke-width="0.320827"/>
<path d="M21.6045 23.8847C21.4075 23.5609 21.1679 23.4497 20.8642 23.321C20.7685 23.2805 20.6717 23.2911 20.5887 23.3229C20.5081 23.3538 20.4325 23.4072 20.364 23.4678C20.2268 23.5892 20.0882 23.7669 19.9597 23.956C19.7013 24.3366 19.4595 24.801 19.3272 25.0602C19.1855 25.3381 19.0631 25.7513 19.0364 26.1125C19.0231 26.2923 19.0323 26.4741 19.0854 26.6241C19.1403 26.779 19.2501 26.9166 19.4382 26.9547C19.5085 26.969 19.586 26.9631 19.6593 26.9499C19.735 26.9363 19.8185 26.9126 19.9057 26.8816C20.0803 26.8198 20.2812 26.7254 20.4847 26.6107C20.8888 26.3828 21.3241 26.0629 21.5919 25.7337C21.826 25.4457 21.881 25.0705 21.8566 24.7376C21.8321 24.4042 21.7263 24.085 21.6045 23.8847Z" fill="#654E3C" stroke="#654E3C" stroke-width="0.320827"/>
<path d="M16.6966 28.6098C16.7779 28.5793 16.8275 28.5153 16.8567 28.458C16.8863 28.4001 16.9036 28.3334 16.9139 28.2677C16.9344 28.1356 16.9311 27.9758 16.9116 27.819C16.8919 27.6614 16.8548 27.4975 16.8021 27.3562C16.752 27.2216 16.6784 27.0811 16.5704 26.9998C16.4882 26.938 16.3891 26.9264 16.3045 26.9315C16.218 26.9367 16.1257 26.9604 16.0356 26.9925C15.8546 27.0569 15.6538 27.1655 15.4729 27.2812C15.2914 27.3972 15.1217 27.5258 15.0033 27.635C14.9455 27.6884 14.8927 27.7436 14.858 27.7949C14.8416 27.8191 14.8204 27.8552 14.8114 27.8981C14.8012 27.9463 14.8042 28.027 14.8744 28.0844C14.9564 28.1515 15.0857 28.2249 15.2296 28.2939C15.3764 28.3642 15.5488 28.4347 15.7239 28.4938C15.8985 28.5527 16.0797 28.6016 16.2434 28.6269C16.4004 28.6512 16.567 28.6582 16.6966 28.6098Z" fill="#654E3C" stroke="#654E3C" stroke-width="0.320827"/>
<path d="M21.4404 27.6373L21.4403 27.6368L21.4279 27.6399C21.0636 27.7309 20.8766 27.8712 20.7048 28.0001L20.7046 28.0002C20.5441 28.1205 20.3987 28.2296 20.0991 28.3049C20.0171 28.3222 19.9227 28.328 19.809 28.3316C19.7861 28.3323 19.7623 28.333 19.7379 28.3336C19.6441 28.3361 19.5402 28.3389 19.4341 28.3481C19.1605 28.372 18.8528 28.44 18.5432 28.6642C18.3861 28.7781 18.2823 28.9036 18.2293 29.0421C18.1758 29.1817 18.1802 29.318 18.2104 29.4412C18.2399 29.5617 18.2952 29.6739 18.3483 29.7706C18.3721 29.814 18.3941 29.8518 18.4144 29.887C18.4438 29.9377 18.4699 29.9828 18.4939 30.0308C18.5848 30.2127 18.8218 30.5687 19.1176 30.8366C19.2656 30.9707 19.4381 31.0916 19.6234 31.1522C19.8137 31.2145 20.0214 31.2134 20.218 31.0951C21.0964 30.5665 21.4283 30.3316 21.6311 30.127C21.7179 30.0395 21.7806 29.9577 21.8473 29.8707C21.859 29.8555 21.8707 29.8401 21.8827 29.8246C21.9643 29.7191 22.0676 29.5907 22.2477 29.4051C22.6475 28.993 22.7678 28.5087 22.5983 28.1301C22.4259 27.7448 21.9891 27.5457 21.4404 27.6373Z" fill="#654E3C" stroke="#654E3C" stroke-width="0.320827"/>
<path d="M18.4657 31.2896C18.4657 31.2261 18.4426 31.1676 18.4187 31.1221C18.3935 31.074 18.3593 31.0256 18.3206 30.9788C18.243 30.8851 18.1372 30.7859 18.0172 30.6937C17.7806 30.5121 17.4629 30.3379 17.161 30.2983C17.0129 30.2789 16.8797 30.2925 16.7609 30.3407C16.6422 30.3888 16.5486 30.4671 16.473 30.5606C16.3274 30.7408 16.2375 30.9939 16.1558 31.2388C16.0422 31.5796 16.2236 31.8525 16.4384 32.0195C16.6501 32.1841 16.9337 32.2821 17.1402 32.2821C17.2555 32.2821 17.3935 32.2411 17.5243 32.1866C17.6594 32.1303 17.8037 32.0524 17.9365 31.9639C18.0686 31.8759 18.1947 31.7736 18.2899 31.6666C18.3798 31.5655 18.4656 31.4338 18.4657 31.2896Z" fill="#654E3C" stroke="#654E3C" stroke-width="0.320827"/>
<path d="M15.2915 30.3981C15.219 30.2182 15.0684 30.0503 14.8925 29.9038C14.7138 29.755 14.4955 29.6173 14.2688 29.5011C14.0417 29.3847 13.8022 29.2878 13.5791 29.2225C13.359 29.1579 13.1432 29.1206 12.9678 29.133C12.8902 29.1385 12.7953 29.1421 12.6886 29.1461C12.4156 29.1565 12.0657 29.1698 11.7337 29.2248C11.2732 29.3012 10.7774 29.4663 10.5144 29.8714C10.4503 29.97 10.4137 30.0742 10.4106 30.1817C10.4075 30.2896 10.4385 30.3893 10.4916 30.4781C10.5944 30.65 10.7831 30.7863 10.9977 30.8931C11.4314 31.1091 12.0554 31.2462 12.6355 31.2839C12.709 31.289 12.8431 31.3107 13.0207 31.3406C13.0399 31.3438 13.0595 31.3471 13.0795 31.3505C13.24 31.3777 13.4245 31.4088 13.6099 31.4354C13.8179 31.4652 14.0315 31.4898 14.2184 31.4963C14.397 31.5025 14.5803 31.4938 14.7086 31.4369C14.9376 31.3351 15.1264 31.1928 15.2377 31.0142C15.3527 30.8296 15.3789 30.6146 15.2915 30.3981Z" fill="#654E3C" stroke="#654E3C" stroke-width="0.320827"/>
<path d="M11.5143 32.6322L11.4422 32.6167L11.3835 32.6613C11.299 32.7255 11.139 32.8882 11.0031 33.0291C10.9477 33.0865 10.8958 33.1408 10.8513 33.1875C10.7781 33.2641 10.7246 33.3201 10.7073 33.3357C10.6777 33.3625 10.6539 33.3987 10.6439 33.4432C10.6342 33.4862 10.64 33.5252 10.6495 33.5553C10.6672 33.6107 10.7036 33.6549 10.7322 33.6848C10.7926 33.7481 10.8811 33.8114 10.9665 33.8657C11.1373 33.9743 11.3473 34.0788 11.4297 34.1063C11.4825 34.1239 11.5309 34.1138 11.5542 34.1078C11.5823 34.1004 11.6095 34.0889 11.6332 34.0774C11.6812 34.054 11.7352 34.0204 11.79 33.9828C11.9007 33.907 12.0317 33.8031 12.1545 33.6979C12.2773 33.5927 12.396 33.4827 12.4815 33.3937C12.5235 33.35 12.5617 33.3071 12.5884 33.27C12.6008 33.2527 12.6171 33.2283 12.6281 33.2006C12.6335 33.187 12.6417 33.1628 12.6422 33.1325C12.6428 33.0998 12.634 33.05 12.5929 33.0088C12.5647 32.9804 12.5262 32.9607 12.5057 32.9505C12.4782 32.9368 12.4449 32.9222 12.4085 32.9074C12.3353 32.8776 12.2417 32.8437 12.1405 32.8098C11.9387 32.7422 11.6974 32.6716 11.5143 32.6322Z" fill="#654E3C" stroke="#654E3C" stroke-width="0.320827"/>
<path d="M8.48486 32.4553L8.43284 32.607L8.50681 32.6324L8.57236 32.5897C8.87836 32.3906 9.21816 32.1056 9.48268 31.8421C9.61499 31.7104 9.73164 31.5809 9.81687 31.4674C9.85936 31.4109 9.89635 31.3552 9.92364 31.3031C9.9489 31.2547 9.97482 31.1929 9.97662 31.1282C9.97966 31.0189 9.90286 30.9469 9.85942 30.9129C9.80735 30.8721 9.74054 30.8373 9.6715 30.8077C9.53151 30.7476 9.34882 30.6946 9.16585 30.6552C8.98237 30.6157 8.79036 30.5879 8.63011 30.5813C8.55044 30.5781 8.47338 30.5797 8.40692 30.5897C8.35404 30.5977 8.27845 30.6146 8.22022 30.6634C7.94243 30.8469 7.78575 30.962 7.66783 31.0864C7.56581 31.194 7.49518 31.3068 7.40002 31.4587C7.38431 31.4838 7.36792 31.51 7.35062 31.5374C7.2973 31.6218 7.28072 31.7142 7.29873 31.8055C7.31573 31.8917 7.36121 31.9658 7.41232 32.0264C7.51315 32.1459 7.66663 32.2488 7.81174 32.3301C7.96024 32.4133 8.11541 32.4824 8.23217 32.5303C8.29085 32.5544 8.34052 32.5734 8.3757 32.5864C8.3933 32.593 8.40732 32.598 8.41706 32.6015L8.42839 32.6055L8.43151 32.6066L8.4324 32.6069L8.43268 32.607L8.43277 32.607L8.48486 32.4553Z" fill="#654E3C" stroke="#654E3C" stroke-width="0.320827"/>
<path d="M24.4629 55.5913L25.4615 54.2598C25.5773 54.3604 25.7699 56.9484 26.4602 58.0879C26.6758 58.4438 27.1259 58.5872 27.1259 58.9201C27.1259 59.2529 27.1444 59.5464 25.628 59.4194C24.7974 59.4037 24.7053 58.9051 24.7958 58.0879L24.4629 55.5913Z" fill="#FFA621" stroke="#FFA621" stroke-width="0.320827"/>
<path d="M31.7268 2.70244C31.6244 2.73951 31.5199 2.77735 31.4236 2.81324L31.4522 1.33449L31.4541 1.23943L31.3723 1.19258C31.3721 1.1925 31.3719 1.19238 31.3717 1.19222L31.3653 1.18816C31.359 1.18408 31.3492 1.17737 31.337 1.16805C31.3123 1.14927 31.279 1.12081 31.2458 1.08319C31.1795 1.00777 31.1194 0.902475 31.1194 0.765621C31.1194 0.462611 31.3537 0.160414 31.708 0.160414C31.832 0.160414 31.9833 0.215928 32.1036 0.317796C32.2221 0.418171 32.2966 0.551155 32.2966 0.699074C32.2966 0.8589 32.2323 0.983195 32.1641 1.07067C32.13 1.11436 32.0959 1.14752 32.0708 1.16938C32.0583 1.18024 32.0483 1.18811 32.0419 1.19291L32.0353 1.19774L32.0346 1.19823L32.0349 1.19805L32.0346 1.19825L31.9526 1.25275L31.9649 1.35128L32.1159 2.55945C32.0067 2.60119 31.8722 2.64983 31.7335 2.70003L31.7268 2.70244Z" fill="#654E3C" stroke="#654E3C" stroke-width="0.320827"/>
<path d="M34.5658 2.98231C34.4886 2.92446 34.4019 2.87166 34.317 2.82657C34.2211 2.77559 34.1185 2.72978 34.0207 2.69498L34.6305 1.50459L34.6762 1.41537L34.6168 1.3363L34.6141 1.33215C34.6111 1.3276 34.6063 1.31975 34.6005 1.30901C34.5889 1.28733 34.5743 1.25504 34.5635 1.21498C34.5424 1.13662 34.5356 1.02851 34.5978 0.904185C34.7225 0.654886 35.0108 0.545965 35.3177 0.651188C35.5888 0.744149 35.7243 1.09766 35.5956 1.36101C35.5372 1.48055 35.4543 1.54008 35.3875 1.57114C35.3533 1.58703 35.323 1.59557 35.3021 1.60004C35.2917 1.60226 35.284 1.60341 35.2796 1.60397L35.276 1.60437L35.1801 1.60971L35.1402 1.69892L34.5658 2.98231Z" fill="#654E3C" stroke="#654E3C" stroke-width="0.320827"/>
<circle cx="32.4572" cy="6.65739" r="0.832196" fill="black"/>
<circle cx="32.6229" cy="6.49108" r="0.332879" fill="white"/>
</svg>
